<?xml version="1.0" encoding="utf-8"?>
<!-- Generator: Adobe Illustrator 17.0.0, SVG Export Plug-In . SVG Version: 6.00 Build 0)  -->
<!DOCTYPE svg PUBLIC "-//W3C//DTD SVG 1.1//EN" "http://www.w3.org/Graphics/SVG/1.1/DTD/svg11.dtd">
<svg version="1.1" id="Слой_1" xmlns="http://www.w3.org/2000/svg" xmlns:xlink="http://www.w3.org/1999/xlink" x="0px" y="0px"
	 width="100px" height="100px" viewBox="0 0 100 100" enable-background="new 0 0 100 100" xml:space="preserve">
<g>
	<g>
		<g>
			<defs>
				<rect id="SVGID_1_" x="2" y="2" width="96" height="96"/>
			</defs>
			<clipPath id="SVGID_2_">
				<use xlink:href="#SVGID_1_"  overflow="visible"/>
			</clipPath>
			<path clip-path="url(#SVGID_2_)" fill="#BF391C" d="M66.216,15.267c1.316-2.842,2.652-5.663,4.047-8.661
				c-15.44-6.486-30.487-6.173-44.867,2.371C11.488,17.226,3.945,29.767,2,45.915c3.3,0.294,6.424,0.567,9.547,0.823
				C13.256,22.34,40.287,3.627,66.216,15.267L66.216,15.267z M66.216,15.267"/>
			<path clip-path="url(#SVGID_2_)" fill="#BF391C" d="M97.215,41.779c-3.104,0.529-6.189,1.078-9.41,1.627
				c1.669,11.17-0.648,21.241-7.484,30.06c-6.797,8.779-15.912,13.6-27.05,14.835c0.275,3.155,0.55,6.231,0.805,9.308
				C77.393,96.786,102.381,73.426,97.215,41.779L97.215,41.779z M97.215,41.779"/>
		</g>
		<path fill="#BF391C" d="M11.409,53.458c-2.967,0.255-6.05,0.529-9.134,0.785C3.001,73.74,20.053,95.688,45.766,97.765
			c0.275-3.156,0.551-6.252,0.806-9.25C26.457,85.165,14.808,73.544,11.409,53.458L11.409,53.458z M11.409,53.458"/>
		<path fill="#BF391C" d="M80.36,26.71c2.396,3.096,4.242,6.505,5.676,10.268c2.986-1.078,5.932-2.156,9.017-3.273
			c-3.556-9.445-9.351-16.969-17.582-22.868c-1.826,2.606-3.634,5.154-5.5,7.819C75.155,20.988,77.983,23.634,80.36,26.71
			L80.36,26.71z M80.36,26.71"/>
	</g>
	<g>
		<path fill-rule="evenodd" clip-rule="evenodd" fill="#BF391C" d="M75.943,57.303c0,5.655-4.56,10.238-10.185,10.238H34.242
			c-5.625,0-10.185-4.583-10.185-10.238c0-5.105,3.718-9.337,8.583-10.11c-0.062-0.359-0.096-0.728-0.096-1.106
			c0-3.583,2.891-6.486,6.455-6.486c1.59,0,3.049,0.578,4.172,1.538c2.005-4.538,4.572-8.68,11.781-8.68
			c8.741,0,12.881,6.776,12.881,13.925c0,0.298-0.012,0.595-0.031,0.887C72.447,48.224,75.943,52.352,75.943,57.303L75.943,57.303z
			 M75.943,57.303"/>
	</g>
</g>
</svg>
